
<svg version="1.1" id="Layer_1" xmlns="http://www.w3.org/2000/svg" xmlns:xlink="http://www.w3.org/1999/xlink" x="0px" y="0px"
	 viewBox="0 0 531 552" xml:space="preserve">
<style type="text/css">
	.st0{fill-rule:evenodd;clip-rule:evenodd;fill:#191717;}
</style>
<path class="st0" d="M265.5,45.9c-130.3,0-235.9,105.6-235.9,235.9c0,104.2,67.6,192.6,161.3,223.8c11.8,2.2,16.1-5.1,16.1-11.4
	c0-5.6-0.2-20.4-0.3-40.1c-65.6,14.3-79.5-31.6-79.5-31.6C116.5,395.3,101,388,101,388c-21.4-14.6,1.6-14.3,1.6-14.3
	c23.7,1.7,36.1,24.3,36.1,24.3c21,36.1,55.2,25.6,68.7,19.6c2.1-15.2,8.2-25.6,15-31.5C170,380.1,115,359.9,115,269.5
	c0-25.8,9.2-46.8,24.3-63.3c-2.4-6-10.5-30,2.3-62.4c0,0,19.8-6.3,64.9,24.2c18.8-5.2,39-7.8,59.1-7.9c20,0.1,40.2,2.7,59.1,7.9
	c45-30.5,64.8-24.2,64.8-24.2c12.9,32.5,4.8,56.5,2.3,62.4c15.1,16.5,24.2,37.6,24.2,63.3c0,90.6-55.2,110.6-107.7,116.4
	c8.5,7.3,16,21.7,16,43.7c0,31.5-0.3,57-0.3,64.7c0,6.3,4.2,13.6,16.2,11.3c93.7-31.3,161.2-119.6,161.2-223.8
	C501.4,151.5,395.8,45.9,265.5,45.9z"/>
</svg>
